<svg width="16" height="16" viewBox="0 0 16 16" fill="none" xmlns="http://www.w3.org/2000/svg">
<g opacity="0.5" clip-path="url(#clip0_576_2287)">
<path fill-rule="evenodd" clip-rule="evenodd" d="M1.61513 1.61544C1.79569 1.43489 2.04057 1.33346 2.2959 1.33346H13.7029C13.9446 1.33346 14.0431 1.36198 14.0976 1.38606C14.1553 1.41156 14.2281 1.45993 14.3836 1.61544C14.5908 1.82264 14.6656 2.04769 14.6656 2.29621V13.6648C14.6649 13.6772 14.6646 13.6896 14.6646 13.7021C14.6646 13.9575 14.5632 14.2024 14.3826 14.3829C14.2021 14.5635 13.9572 14.6649 13.7018 14.6649H2.2959C2.04057 14.6649 1.79569 14.5635 1.61513 14.3829C1.43458 14.2024 1.33315 13.9575 1.33315 13.7021V2.29621C1.33315 2.04087 1.43458 1.79599 1.61513 1.61544ZM15.8381 14.5438C15.7237 14.8341 15.5503 15.1008 15.3254 15.3257C14.8948 15.7563 14.3108 15.9982 13.7018 15.9982H2.2959C1.68694 15.9982 1.10293 15.7563 0.672325 15.3257C0.241725 14.8951 -0.000183105 14.3111 -0.000183105 13.7021V2.29621C-0.000183105 1.68725 0.241725 1.10323 0.672325 0.67263C0.898314 0.446641 1.16656 0.272625 1.45849 0.158275C1.57473 0.0596277 1.72523 0.00012207 1.88963 0.00012207H2.2959H13.7029C14.0403 0.00012207 14.3458 0.0380298 14.6365 0.166482C14.924 0.293514 15.1376 0.483763 15.3265 0.672633C15.808 1.15419 15.999 1.73001 15.999 2.29621V14.1095C15.999 14.2754 15.9384 14.4271 15.8381 14.5438Z" fill="#2D3440"/>
</g>
<defs>
<clipPath id="clip0_576_2287">
<rect width="16" height="16" fill="white"/>
</clipPath>
</defs>
</svg>
