<svg width="16" height="16" viewBox="0 0 16 16" fill="none" xmlns="http://www.w3.org/2000/svg">
<path fill-rule="evenodd" clip-rule="evenodd" d="M2.66329 7.33008C2.66329 4.75275 4.75263 2.66341 7.32996 2.66341C9.90729 2.66341 11.9966 4.75275 11.9966 7.33008C11.9966 8.58735 11.4994 9.7285 10.6909 10.5676C10.6681 10.5852 10.6461 10.6044 10.6252 10.6253C10.6043 10.6463 10.585 10.6682 10.5675 10.6911C9.72835 11.4996 8.58722 11.9967 7.32996 11.9967C4.75263 11.9967 2.66329 9.90741 2.66329 7.33008ZM11.0751 12.018C10.0486 12.8391 8.74662 13.3301 7.32996 13.3301C4.01625 13.3301 1.32996 10.6438 1.32996 7.33008C1.32996 4.01637 4.01625 1.33008 7.32996 1.33008C10.6437 1.33008 13.33 4.01637 13.33 7.33008C13.33 8.74676 12.839 10.0488 12.0179 11.0752L14.468 13.5253C14.7284 13.7857 14.7284 14.2078 14.468 14.4682C14.2077 14.7285 13.7855 14.7285 13.5252 14.4682L11.0751 12.018Z" fill="#2D3440"/>
</svg>
