<svg width="16" height="16" viewBox="0 0 16 16" fill="none" xmlns="http://www.w3.org/2000/svg">
<path fill-rule="evenodd" clip-rule="evenodd" d="M12.1919 9.80474C12.4522 10.0651 12.8743 10.0651 13.1347 9.80474C13.395 9.54439 13.395 9.12228 13.1347 8.86193L8.47435 4.20158C8.47229 4.19947 8.47021 4.19736 8.46811 4.19526C8.33741 4.06457 8.16596 3.99948 7.99466 4C7.8247 4.0005 7.65489 4.06559 7.52522 4.19526C7.52313 4.19735 7.52106 4.19944 7.51901 4.20155L2.85863 8.86193C2.59828 9.12228 2.59828 9.54439 2.85863 9.80474C3.11898 10.0651 3.54109 10.0651 3.80144 9.80474L7.99666 5.60952L12.1919 9.80474Z" fill="#FCFCFC"/>
</svg>
